<svg xmlns="http://www.w3.org/2000/svg" xmlns:xlink="http://www.w3.org/1999/xlink" width="578.288" height="82.367" viewBox="0 0 578.288 82.367">
  <defs>
    <radialGradient id="radial-gradient" cx="-0.358" cy="0.468" r="3.594" gradientUnits="objectBoundingBox">
      <stop offset="0" stop-color="#6c20f7"/>
      <stop offset="0.39" stop-color="#9259f9"/>
      <stop offset="0.64" stop-color="#a97dfa"/>
    </radialGradient>
    <radialGradient id="radial-gradient-2" cx="0.052" cy="1.423" r="2.621" gradientUnits="objectBoundingBox">
      <stop offset="0" stop-color="#6c20f7"/>
      <stop offset="0.64" stop-color="#a97dfa"/>
    </radialGradient>
    <radialGradient id="radial-gradient-3" cx="0.051" cy="-0.476" r="2.622" xlink:href="#radial-gradient-2"/>
  </defs>
  <g id="Layer_1-2" transform="translate(-0.004 0.003)">
    <path id="Path_18532" data-name="Path 18532" d="M451.556,62.683a16.922,16.922,0,0,1-5.589,6.035,15.712,15.712,0,0,1-8.9,2.417,16.4,16.4,0,0,1-6.447-1.242,15.25,15.25,0,0,1-5.117-3.463,15.945,15.945,0,0,1-3.368-5.238,18.634,18.634,0,0,1-.068-13.021,16.251,16.251,0,0,1,3.206-5.272,15.288,15.288,0,0,1,11.469-4.928,16.43,16.43,0,0,1,6.447,1.208,13.717,13.717,0,0,1,4.8,3.368,14.72,14.72,0,0,1,3.017,5.211,20.469,20.469,0,0,1,1.046,6.669V55a3.076,3.076,0,0,0-.061.574,2.164,2.164,0,0,0-.061.506h-23.95a9.855,9.855,0,0,0,1.08,3.875,9.133,9.133,0,0,0,2.194,2.734,8.536,8.536,0,0,0,2.889,1.586,10.232,10.232,0,0,0,3.112.506,8.231,8.231,0,0,0,5.022-1.458,12.113,12.113,0,0,0,3.24-3.625Zm-6.548-12.009a9.009,9.009,0,0,0-.6-2.126,6.5,6.5,0,0,0-1.458-2.16,8.479,8.479,0,0,0-2.538-1.681,9.2,9.2,0,0,0-3.78-.7,7.947,7.947,0,0,0-5.238,1.809,8.918,8.918,0,0,0-2.957,4.86h16.579Z" transform="translate(-136.789 -12.34)" fill="#161616"/>
    <path id="Path_18533" data-name="Path 18533" d="M503.349,62.17a17.943,17.943,0,0,1-2.194,3.463,15.207,15.207,0,0,1-3.051,2.862,14.077,14.077,0,0,1-4.037,1.937,17.122,17.122,0,0,1-5.015.7,16.806,16.806,0,0,1-6.541-1.242,15.1,15.1,0,0,1-5.144-3.463A15.887,15.887,0,0,1,474,61.157a18.676,18.676,0,0,1,0-13.217,15.781,15.781,0,0,1,3.368-5.272,15.1,15.1,0,0,1,5.144-3.463,17.995,17.995,0,0,1,11.53-.533,14.13,14.13,0,0,1,4,1.937,14.492,14.492,0,0,1,3.017,2.862,15.228,15.228,0,0,1,2.032,3.4l-6.48,2.734a8.907,8.907,0,0,0-2.984-3.746,8.912,8.912,0,0,0-8.229-.608,9.153,9.153,0,0,0-2.862,2.032,9.735,9.735,0,0,0-1.971,3.146,12.069,12.069,0,0,0,0,8.262,9.622,9.622,0,0,0,1.971,3.146,8.971,8.971,0,0,0,2.862,2.032,8.2,8.2,0,0,0,3.4.729,8.844,8.844,0,0,0,4.989-1.364A9.047,9.047,0,0,0,497,59.456l6.352,2.734Z" transform="translate(-153.642 -12.34)" fill="#161616"/>
    <path id="Path_18534" data-name="Path 18534" d="M525.587,18.2h7.054V31.734l-.378,5.015h.378a10.639,10.639,0,0,1,3.935-3.719,11.445,11.445,0,0,1,5.778-1.492,13.58,13.58,0,0,1,5.272.918,9.539,9.539,0,0,1,3.686,2.639,11.079,11.079,0,0,1,2.16,4.1,18.555,18.555,0,0,1,.7,5.238V63.683H547.12v-18.3q0-3.878-1.877-5.589a6.753,6.753,0,0,0-4.732-1.715,6.588,6.588,0,0,0-3.274.8A8.186,8.186,0,0,0,534.76,41a9.381,9.381,0,0,0-1.586,3.051,11.832,11.832,0,0,0-.54,3.557V63.683H525.58V18.2Z" transform="translate(-170.797 -5.915)" fill="#161616"/>
    <path id="Path_18535" data-name="Path 18535" d="M584.773,43.171h.378a11.236,11.236,0,0,1,3.969-3.719,11.391,11.391,0,0,1,5.812-1.492q5.9,0,8.829,3.524t2.923,9.369V70.1H599.63V51.8c0-2.714-.628-4.6-1.877-5.684a7.257,7.257,0,0,0-4.921-1.62,6.681,6.681,0,0,0-3.24.763,7.749,7.749,0,0,0-2.417,2.066,9.112,9.112,0,0,0-1.526,2.984,12.154,12.154,0,0,0-.506,3.524V70.1H578.09V38.966h6.669v4.192Z" transform="translate(-187.861 -12.337)" fill="#161616"/>
    <path id="Path_18536" data-name="Path 18536" d="M644.251,37.97a16.951,16.951,0,0,1,6.541,1.235,15.1,15.1,0,0,1,5.144,3.463A15.89,15.89,0,0,1,659.3,47.94a18.678,18.678,0,0,1,0,13.217,15.822,15.822,0,0,1-3.368,5.272,15.1,15.1,0,0,1-5.144,3.463,17.845,17.845,0,0,1-13.082,0,15.1,15.1,0,0,1-5.144-3.463,15.885,15.885,0,0,1-3.368-5.272,18.677,18.677,0,0,1,0-13.217,15.78,15.78,0,0,1,3.368-5.272,15.1,15.1,0,0,1,5.144-3.463A16.951,16.951,0,0,1,644.251,37.97Zm0,26.616a8.588,8.588,0,0,0,3.429-.7,9.491,9.491,0,0,0,2.957-1.971,9.05,9.05,0,0,0,2.066-3.146,12.087,12.087,0,0,0,0-8.451,9.114,9.114,0,0,0-2.066-3.146A9.61,9.61,0,0,0,647.68,45.2a8.726,8.726,0,0,0-6.858,0,9.491,9.491,0,0,0-2.957,1.971,9.115,9.115,0,0,0-2.065,3.146,12.087,12.087,0,0,0,0,8.451,9.115,9.115,0,0,0,2.065,3.146,9.414,9.414,0,0,0,2.957,1.971,8.707,8.707,0,0,0,3.429.7Z" transform="translate(-204.077 -12.34)" fill="#161616"/>
    <path id="Path_18537" data-name="Path 18537" d="M683.61,63.69V18.2h7.054V63.69Z" transform="translate(-222.152 -5.915)" fill="#161616"/>
    <path id="Path_18538" data-name="Path 18538" d="M717.758,37.97a16.952,16.952,0,0,1,6.541,1.235,15.1,15.1,0,0,1,5.144,3.463,16,16,0,0,1,3.369,5.272,18.675,18.675,0,0,1,0,13.217,15.82,15.82,0,0,1-3.369,5.272,15.162,15.162,0,0,1-5.144,3.463,17.863,17.863,0,0,1-13.089,0,15.1,15.1,0,0,1-5.144-3.463,15.888,15.888,0,0,1-3.369-5.272,18.679,18.679,0,0,1,0-13.217,15.889,15.889,0,0,1,3.369-5.272,15.1,15.1,0,0,1,5.144-3.463A16.962,16.962,0,0,1,717.758,37.97Zm0,26.616a8.589,8.589,0,0,0,3.429-.7,9.49,9.49,0,0,0,2.957-1.971,9.045,9.045,0,0,0,2.066-3.146,12.086,12.086,0,0,0,0-8.451,9.108,9.108,0,0,0-2.066-3.146,9.53,9.53,0,0,0-2.957-1.971,8.726,8.726,0,0,0-6.858,0,9.49,9.49,0,0,0-2.957,1.971,9.115,9.115,0,0,0-2.066,3.146,12.087,12.087,0,0,0,0,8.451,9.115,9.115,0,0,0,2.066,3.146,9.413,9.413,0,0,0,2.957,1.971,8.731,8.731,0,0,0,3.429.7Z" transform="translate(-227.963 -12.34)" fill="#161616"/>
    <path id="Path_18539" data-name="Path 18539" d="M770.833,84.844a17.709,17.709,0,0,1-5.751-.857,16.441,16.441,0,0,1-4.354-2.194,13.063,13.063,0,0,1-3.017-2.984,14.168,14.168,0,0,1-1.748-3.179L762.7,72.9a8.332,8.332,0,0,0,3.051,4.037,8.444,8.444,0,0,0,5.083,1.559,9,9,0,0,0,6.831-2.558,9.961,9.961,0,0,0,2.444-7.162V66.227h-.378a11.486,11.486,0,0,1-4.037,3.5,12.39,12.39,0,0,1-6,1.4,13.125,13.125,0,0,1-5.529-1.222,15.1,15.1,0,0,1-4.732-3.4,16.035,16.035,0,0,1-3.274-5.258A18.334,18.334,0,0,1,754.95,54.5a18.077,18.077,0,0,1,1.208-6.7,16.09,16.09,0,0,1,3.274-5.225,15.283,15.283,0,0,1,4.732-3.4,13.206,13.206,0,0,1,5.529-1.222,12.372,12.372,0,0,1,6,1.4,11.546,11.546,0,0,1,4.037,3.5h.378V38.969h6.8V68.32A18.913,18.913,0,0,1,785.67,75.4a15.025,15.025,0,0,1-3.368,5.177,14,14,0,0,1-5.083,3.179,18.409,18.409,0,0,1-6.386,1.08Zm.256-20.264a9.159,9.159,0,0,0,3.368-.648,7.96,7.96,0,0,0,2.889-1.937,9.943,9.943,0,0,0,2-3.166,12.559,12.559,0,0,0,0-8.62,9.512,9.512,0,0,0-2-3.166,8.6,8.6,0,0,0-2.889-1.937,8.771,8.771,0,0,0-3.368-.675,8.994,8.994,0,0,0-3.4.675,8.7,8.7,0,0,0-2.889,1.971,9.571,9.571,0,0,0-2.032,3.166,12.275,12.275,0,0,0,0,8.519,9.679,9.679,0,0,0,2.032,3.166,8.705,8.705,0,0,0,6.291,2.646Z" transform="translate(-245.336 -12.334)" fill="#161616"/>
    <path id="Path_18540" data-name="Path 18540" d="M820.891,68.82,807.93,39.47h7.878l8.58,20.649h.317l8.323-20.649h7.817l-19.5,44.856h-7.5l7.054-15.5Z" transform="translate(-262.553 -12.827)" fill="#161616"/>
    <path id="Path_18541" data-name="Path 18541" d="M404.2,59.878a10.348,10.348,0,0,1-2.734,7.581,9.349,9.349,0,0,1-2.984,1.944,10.23,10.23,0,0,1-3.935.716,17.389,17.389,0,0,1-3.3-.284,16.438,16.438,0,0,1-2.795-.8l2.16-6.224a7.116,7.116,0,0,0,1.208.479,6.075,6.075,0,0,0,1.586.162,3.466,3.466,0,0,0,2.734-1.242,4.415,4.415,0,0,0,.763-1.634,8.6,8.6,0,0,0,.257-2.153V44.879a.677.677,0,0,0-.675-.675h-7.014V37.98h12.306a2.44,2.44,0,0,1,2.437,2.437V59.891Z" transform="translate(-126.234 -12.343)" fill="#161616"/>
    <path id="Path_18542" data-name="Path 18542" d="M350.128,45.66H330.755a.678.678,0,0,0-.675.675V65.708a.677.677,0,0,0,.675.675h19.373a.668.668,0,0,0,.675-.675V46.335a.668.668,0,0,0-.675-.675Z" transform="translate(-107.265 -14.839)" fill="url(#radial-gradient)"/>
    <path id="Path_18543" data-name="Path 18543" d="M322.9,28.134a.666.666,0,0,0,.938.149L339.516,16.9a.669.669,0,0,0,.148-.938L328.284.276a.671.671,0,0,0-.405-.263.68.68,0,0,0-.54.115L311.664,11.515a.668.668,0,0,0-.277.473.619.619,0,0,0,.128.466L322.9,28.128Z" transform="translate(-101.189 0)" fill="url(#radial-gradient-2)"/>
    <path id="Path_18544" data-name="Path 18544" d="M323.852,80.058a.668.668,0,0,0-.938.149L311.526,95.88a.667.667,0,0,0,.148.945l15.674,11.388a.669.669,0,0,0,.473.122.655.655,0,0,0,.466-.277l11.388-15.674a.669.669,0,0,0-.148-.938Z" transform="translate(-101.193 -25.975)" fill="url(#radial-gradient-3)"/>
    <path id="Path_18545" data-name="Path 18545" d="M.676,37.967H7.143a.674.674,0,0,1,.628.432l8.222,21.547h.317l8.411-21.554a.681.681,0,0,1,.628-.432h6.278a.676.676,0,0,1,.621.938L19.786,68.681a.678.678,0,0,1-.621.412h-6.15a.666.666,0,0,1-.621-.419L.055,38.9A.673.673,0,0,1,.676,37.967Z" transform="translate(0 -12.337)" fill="#161616"/>
    <path id="Path_18546" data-name="Path 18546" d="M72.889,64.794h-.932a10.666,10.666,0,0,1-3.071,3.335,10.168,10.168,0,0,1-5.657,1.492,13.229,13.229,0,0,1-4.637-.8A11.35,11.35,0,0,1,54.846,66.6a10.557,10.557,0,0,1-2.511-3.368A10.465,10.465,0,0,1,52.4,54.5a9.314,9.314,0,0,1,2.734-3.3,12.936,12.936,0,0,1,4.165-2.066,17.941,17.941,0,0,1,5.211-.729,19.33,19.33,0,0,1,5.211.6A23.242,23.242,0,0,1,72.9,50.119V48.911a5.8,5.8,0,0,0-.6-2.606,6.289,6.289,0,0,0-1.654-2.066A7.927,7.927,0,0,0,68.259,42.9a8.271,8.271,0,0,0-2.795-.479,9.455,9.455,0,0,0-4.226.925,8.78,8.78,0,0,0-2.957,2.45.678.678,0,0,1-.9.155l-4.455-2.936a.668.668,0,0,1-.162-.979,14.276,14.276,0,0,1,5.083-4.03,17.346,17.346,0,0,1,7.5-1.559q6.926,0,10.706,3.429t3.78,9.781V67.92a.677.677,0,0,1-.675.675H73.578a.677.677,0,0,1-.675-.675V64.781Zm-.007-8.735a.662.662,0,0,0-.351-.621,13.6,13.6,0,0,0-2.754-1.127,13.935,13.935,0,0,0-3.942-.506,8.367,8.367,0,0,0-5.272,1.526,4.535,4.535,0,0,0-1.971,3.686,3.839,3.839,0,0,0,.506,2,5.38,5.38,0,0,0,1.3,1.492,5.312,5.312,0,0,0,1.843.952,7.185,7.185,0,0,0,2.126.317,8.233,8.233,0,0,0,3.274-.668,8.752,8.752,0,0,0,4.543-4.347,7.156,7.156,0,0,0,.689-2.7Z" transform="translate(-16.706 -11.846)" fill="#161616"/>
    <path id="Path_18547" data-name="Path 18547" d="M102.955,37.479h5.319a.677.677,0,0,1,.675.675v4.023h.378a8.554,8.554,0,0,1,1.559-2.255,10.1,10.1,0,0,1,2.221-1.782,14.056,14.056,0,0,1,2.606-1.208,7.994,7.994,0,0,1,2.639-.473,10.055,10.055,0,0,1,2.606.29,8.713,8.713,0,0,1,1.971.79L120.9,43.96a6.918,6.918,0,0,0-1.559-.479,11.342,11.342,0,0,0-2.066-.162,7.075,7.075,0,0,0-3.146.7,8.135,8.135,0,0,0-2.511,1.917,8.685,8.685,0,0,0-1.681,2.876,10.122,10.122,0,0,0-.6,3.51V67.93a.677.677,0,0,1-.675.675h-5.7a.677.677,0,0,1-.675-.675V38.148a.677.677,0,0,1,.675-.675Z" transform="translate(-33.237 -11.849)" fill="#161616"/>
    <path id="Path_18548" data-name="Path 18548" d="M142.246,25.471a4.566,4.566,0,0,1-3.4-1.4,4.842,4.842,0,0,1,0-6.737,4.566,4.566,0,0,1,3.4-1.4,4.418,4.418,0,0,1,3.335,1.4,4.842,4.842,0,0,1,0,6.737A4.491,4.491,0,0,1,142.246,25.471Zm-3.557,35.79V31.479a.677.677,0,0,1,.675-.675h5.7a.677.677,0,0,1,.675.675V61.261a.677.677,0,0,1-.675.675h-5.7A.677.677,0,0,1,138.688,61.261Z" transform="translate(-44.676 -5.181)" fill="#161616"/>
    <path id="Path_18549" data-name="Path 18549" d="M216.423,41.671h.378a11.236,11.236,0,0,1,3.969-3.719,11.392,11.392,0,0,1,5.812-1.492q5.9,0,8.829,3.524t2.923,9.369V67.93a.677.677,0,0,1-.675.675h-5.7a.677.677,0,0,1-.675-.675V50.3q0-4.06-1.877-5.684A7.256,7.256,0,0,0,224.483,43a6.681,6.681,0,0,0-3.24.763,7.749,7.749,0,0,0-2.417,2.066,9.111,9.111,0,0,0-1.526,2.984,12.151,12.151,0,0,0-.506,3.524V67.923a.677.677,0,0,1-.675.675h-5.7a.677.677,0,0,1-.675-.675V38.141a.677.677,0,0,1,.675-.675h5.319a.677.677,0,0,1,.675.675v3.517Z" transform="translate(-68.158 -11.849)" fill="#161616"/>
    <path id="Path_18550" data-name="Path 18550" d="M260.39,44.191V40.4a2.44,2.44,0,0,1,2.437-2.437h12.306v6.224h-7.014a.677.677,0,0,0-.675.675V58.407a8.3,8.3,0,0,0,.257,2.153,4.467,4.467,0,0,0,.763,1.634,3.477,3.477,0,0,0,2.734,1.242,6.074,6.074,0,0,0,1.586-.162,6.786,6.786,0,0,0,1.208-.479l2.16,6.224a17.78,17.78,0,0,1-2.795.8,17.438,17.438,0,0,1-3.3.284,10.081,10.081,0,0,1-3.935-.716,9.465,9.465,0,0,1-2.984-1.944,10.359,10.359,0,0,1-2.734-7.581V44.177Z" transform="translate(-84.618 -12.337)" fill="#161616"/>
    <path id="Path_18551" data-name="Path 18551" d="M179.369,64.794h-.932a10.666,10.666,0,0,1-3.071,3.335,10.168,10.168,0,0,1-5.657,1.492,13.229,13.229,0,0,1-4.637-.8,11.35,11.35,0,0,1-3.746-2.221,10.558,10.558,0,0,1-2.511-3.368,10.465,10.465,0,0,1,.061-8.735,9.314,9.314,0,0,1,2.734-3.3,12.936,12.936,0,0,1,4.165-2.066,17.941,17.941,0,0,1,5.211-.729,19.33,19.33,0,0,1,5.211.6,23.242,23.242,0,0,1,3.179,1.114V48.911a5.794,5.794,0,0,0-.6-2.606,6.289,6.289,0,0,0-1.654-2.066,7.927,7.927,0,0,0-2.383-1.337,8.271,8.271,0,0,0-2.795-.479,9.455,9.455,0,0,0-4.226.925,8.78,8.78,0,0,0-2.957,2.45.678.678,0,0,1-.9.155L159.4,43.018a.668.668,0,0,1-.162-.979,14.277,14.277,0,0,1,5.083-4.03,17.346,17.346,0,0,1,7.5-1.559q6.926,0,10.706,3.429t3.78,9.781V67.92a.677.677,0,0,1-.675.675h-5.576a.677.677,0,0,1-.675-.675V64.781Zm-.007-8.735a.662.662,0,0,0-.351-.621,13.6,13.6,0,0,0-2.754-1.127,13.935,13.935,0,0,0-3.942-.506,8.367,8.367,0,0,0-5.272,1.526,4.534,4.534,0,0,0-1.971,3.686,3.839,3.839,0,0,0,.506,2,5.381,5.381,0,0,0,1.3,1.492,5.312,5.312,0,0,0,1.843.952,7.185,7.185,0,0,0,2.126.317,8.233,8.233,0,0,0,3.274-.668,8.752,8.752,0,0,0,4.543-4.347,7.156,7.156,0,0,0,.689-2.7Z" transform="translate(-51.308 -11.846)" fill="#161616"/>
  </g>
</svg>
