<svg id="switch_access_shortcut_black_24dp" xmlns="http://www.w3.org/2000/svg" width="20" height="20" viewBox="0 0 20 20">
  <rect id="Rectangle_9697" data-name="Rectangle 9697" width="20" height="20" fill="none"/>
  <path id="Path_16477" data-name="Path 16477" d="M6.383,7.783,4.667,7l1.717-.783L7.167,4.5,7.95,6.217,9.667,7,7.95,7.783,7.167,9.5,6.383,7.783Zm.783,10.05.783-1.717,1.717-.783L7.95,14.55l-.783-1.717L6.383,14.55l-1.717.783,1.717.783ZM4.142,10.642,3,11.167l1.142.525.525,1.142.525-1.142,1.142-.525-1.142-.525L4.667,9.5Zm6.358-.308a9.519,9.519,0,0,1,2.867-6.667H10.5V2h5.833V7.833H14.667v-3.1a7.976,7.976,0,0,0-2.5,5.6,7.485,7.485,0,0,0,4.167,6.517v1.817A9.16,9.16,0,0,1,10.5,10.333Z" transform="translate(-0.5 -0.333)" fill="#fff"/>
</svg>
