<svg xmlns="http://www.w3.org/2000/svg" width="12" height="15" viewBox="0 0 12 15">
  <path id="upload_file_FILL0_wght400_GRAD0_opsz24" d="M165.25-870.381V-868a.726.726,0,0,0,.216.534.726.726,0,0,0,.534.216.726.726,0,0,0,.534-.216.726.726,0,0,0,.216-.534v-2.381l.675.675a.749.749,0,0,0,.253.169.637.637,0,0,0,.281.047.826.826,0,0,0,.272-.066.779.779,0,0,0,.244-.169.791.791,0,0,0,.216-.525.687.687,0,0,0-.216-.525l-1.95-1.95a.657.657,0,0,0-.244-.159.83.83,0,0,0-.281-.047.83.83,0,0,0-.281.047.657.657,0,0,0-.244.159l-1.95,1.95a.687.687,0,0,0-.216.525.755.755,0,0,0,.234.525.791.791,0,0,0,.525.216.687.687,0,0,0,.525-.216ZM161.5-865a1.444,1.444,0,0,1-1.059-.441A1.444,1.444,0,0,1,160-866.5v-12a1.445,1.445,0,0,1,.441-1.059A1.444,1.444,0,0,1,161.5-880h5.381a1.481,1.481,0,0,1,.572.112,1.456,1.456,0,0,1,.478.319l3.638,3.637a1.457,1.457,0,0,1,.319.478,1.481,1.481,0,0,1,.113.572v8.381a1.444,1.444,0,0,1-.441,1.059A1.444,1.444,0,0,1,170.5-865Zm5.25-10.5v-3H161.5v12h9v-8.25h-3a.726.726,0,0,1-.534-.216A.726.726,0,0,1,166.75-875.5Zm-5.25-3v0Z" transform="translate(-160 880)" fill="#0d214b"/>
</svg>
